<svg xmlns="http://www.w3.org/2000/svg" viewBox="0 0 200 200" width="100%" height="100%">
  <!-- Callisto Living Official Architectural Mark -->
  <g transform="translate(0, 10)">
    <!-- Dark Slate C-Hexagon Roof -->
    <path d="M 100 10 L 165 46 L 100 82 L 35 46 Z" fill="#1F2421"/>
    <!-- Upper Wing -->
    <path d="M 165 46 L 165 76 L 112 105 L 112 76 Z" fill="#2C3434"/>
    <!-- Bottom Arm -->
    <path d="M 165 140 L 100 176 L 35 140 L 35 104 L 100 140 L 165 104 Z" fill="#1F2421"/>
    <!-- Left Outer Pillar -->
    <path d="M 37 46 L 56 57 L 56 149 L 37 140 Z" fill="#171B1B"/>
    <!-- RED Architectural Door Pillar -->
    <polygon points="58,58 85,42 85,166 58,150" fill="#DE1D25"/>
    <!-- House Silhouette -->
    <path d="M 91,72 L 158,110 L 158,136 L 91,176 Z" fill="#1F2421"/>
    <!-- 4 White Window Squares -->
    <rect x="116" y="102" width="10" height="10" fill="#FFFFFF"/>
    <rect x="130" y="102" width="10" height="10" fill="#FFFFFF"/>
    <rect x="116" y="116" width="10" height="10" fill="#FFFFFF"/>
    <rect x="130" y="116" width="10" height="10" fill="#FFFFFF"/>
  </g>
</svg>
